<?xml version="1.0" encoding="iso-8859-1"?>
<svg version="1.1" id="Layer_1" xmlns="http://www.w3.org/2000/svg" xmlns:xlink="http://www.w3.org/1999/xlink" x="0px" y="0px"
	 viewBox="0 0 512 512" style="enable-background:new 0 0 512 512;" xml:space="preserve" fill="currentColor">
<g>
	<g>
		<path d="M330.418,50.153C330.418,22.499,307.919,0,280.265,0h-48.528c-27.654,0-50.153,22.499-50.153,50.154v8.508H68.686v96.851
			h25.037L136.562,512h238.875l42.84-356.489h25.037V58.661H330.418V50.153z M212.93,50.154c0-10.37,8.437-18.807,18.806-18.807
			h48.528c10.37,0,18.806,8.437,18.806,18.807v8.508h-86.14V50.154z M347.632,480.653H164.369l-39.075-325.142h261.413
			L347.632,480.653z M411.968,90.007v34.157H100.033V90.007h81.55h148.835H411.968z"/>
	</g>
</g>
<g>
	<g>
		<rect x="177.284" y="189.303" transform="matrix(0.9986 -0.053 0.053 0.9986 -16.655 10.6754)" width="31.346" height="260.129"/>
	</g>
</g>
<g>
	<g>
		<rect x="240.327" y="189.471" width="31.347" height="259.762"/>
	</g>
</g>
<g>
	<g>
		
			<rect x="188.973" y="303.698" transform="matrix(0.053 -0.9986 0.9986 0.053 -16.7935 621.0336)" width="260.129" height="31.346"/>
	</g>
</g>
</svg>
