<?xml version="1.0" standalone="no"?>
<svg version="1.0" xmlns="http://www.w3.org/2000/svg"
 width="1053.000000pt" height="1280.000000pt" viewBox="0 0 1053.000000 1280.000000"
 preserveAspectRatio="xMidYMid meet">
<g transform="translate(0.000000,1280.000000) scale(0.100000,-0.100000)"
fill="currentColor" stroke="none">
<path d="M5365 12789 c-55 -4 -197 -12 -315 -19 -781 -41 -1546 -159 -2375
-366 -208 -52 -676 -184 -688 -193 -7 -7 -65 -324 -367 -2001 -78 -432 -172
-957 -211 -1167 -71 -393 -75 -423 -60 -423 5 0 98 34 207 76 547 209 945 316
1639 443 1692 310 2821 254 3274 -163 162 -150 282 -454 340 -861 27 -184 36
-301 24 -308 -5 -3 -65 28 -133 70 -612 368 -1260 537 -2150 560 -946 23
-1836 -187 -2532 -598 -322 -190 -544 -363 -829 -648 -448 -449 -745 -926
-943 -1521 -114 -343 -184 -692 -215 -1075 -6 -71 -15 -185 -21 -252 -14 -176
-13 -279 10 -543 23 -263 40 -387 76 -570 122 -617 373 -1154 771 -1650 132
-165 435 -471 600 -604 689 -558 1448 -864 2348 -945 373 -34 449 -36 694 -17
288 21 476 46 686 91 600 130 1127 399 1568 803 38 34 75 62 83 62 12 0 14
-63 14 -415 0 -281 3 -415 10 -415 10 0 389 54 1955 280 341 49 864 124 1163
167 l542 78 0 3768 c0 2313 -4 3824 -10 3911 -5 77 -14 224 -20 326 -65 1075
-305 1920 -723 2540 -622 924 -1750 1446 -3357 1554 -550 38 -817 44 -1055 25z
m56 -7169 c516 -53 975 -307 1171 -649 50 -89 100 -219 123 -321 22 -100 31
-370 16 -483 -73 -547 -484 -902 -1163 -1003 -147 -21 -459 -29 -588 -15 -282
33 -506 113 -700 249 -273 194 -443 461 -495 782 -95 589 129 1021 671 1293
145 73 350 134 504 150 79 8 365 6 461 -3z"/>
</g>
</svg>
